<svg width="30" height="31" viewBox="0 0 30 31" fill="none" xmlns="http://www.w3.org/2000/svg">
<mask id="path-1-inside-1_5_32" fill="white">
<path fill-rule="evenodd" clip-rule="evenodd" d="M28.181 26.4748C28.9135 25.8639 28.293 24.749 27.3399 24.788C27.1244 24.7969 26.9076 24.8013 26.6897 24.8013C18.5768 24.8013 12 18.6196 12 10.9941C12 7.90592 13.0786 5.05455 14.9011 2.75466C15.4968 2.00292 14.968 0.812733 14.0327 1.02495C7.12873 2.59129 2 8.43565 2 15.4059C2 23.5762 9.04655 30.1994 17.7389 30.1994C21.7456 30.1994 25.4026 28.7922 28.181 26.4748Z"/>
</mask>
<path d="M27.3399 24.788L27.2581 22.7897L27.3399 24.788ZM28.181 26.4748L26.9 24.9389L28.181 26.4748ZM27.2581 22.7897C27.0698 22.7974 26.8803 22.8013 26.6897 22.8013V26.8013C26.9348 26.8013 27.1789 26.7963 27.4218 26.7864L27.2581 22.7897ZM26.6897 22.8013C19.5628 22.8013 14 17.4001 14 10.9941H10C10 19.8391 17.5907 26.8013 26.6897 26.8013V22.8013ZM14 10.9941C14 8.38325 14.9094 5.96448 16.4686 3.99679L13.3336 1.51254C11.2479 4.14462 10 7.42858 10 10.9941H14ZM4 15.4059C4 9.46944 8.38123 4.35795 14.4752 2.97538L13.5902 -0.925484C5.87624 0.824623 0 7.40185 0 15.4059H4ZM17.7389 28.1994C10.0326 28.1994 4 22.3567 4 15.4059H0C0 24.7956 8.06051 32.1994 17.7389 32.1994V28.1994ZM26.9 24.9389C24.4779 26.9591 21.2732 28.1994 17.7389 28.1994V32.1994C22.218 32.1994 26.3274 30.6252 29.4621 28.0107L26.9 24.9389ZM16.4686 3.99679C17.2807 2.97197 17.3212 1.65994 16.8451 0.665061C16.3396 -0.391497 15.1224 -1.27312 13.5902 -0.925484L14.4752 2.97538C14.2491 3.02666 13.9588 3.00258 13.6908 2.85673C13.4449 2.72293 13.3062 2.5363 13.2369 2.39158C13.1102 2.12668 13.1172 1.78561 13.3336 1.51254L16.4686 3.99679ZM27.4218 26.7864C27.0731 26.8006 26.7707 26.6028 26.6194 26.3128C26.5384 26.1577 26.472 25.9221 26.5171 25.6364C26.5658 25.3274 26.7269 25.0834 26.9 24.9389L29.4621 28.0107C30.6556 27.0152 30.7171 25.5194 30.1658 24.4626C29.649 23.4722 28.5598 22.7364 27.2581 22.7897L27.4218 26.7864Z" fill="black" mask="url(#path-1-inside-1_5_32)"/>
</svg>
