<svg class="svg" width="25" height="25" viewBox="0 0 25 25" fill="none" xmlns="http://www.w3.org/2000/svg">
<g clip-path="url(#clip0_6_12)">
<path d="M21.3011 21.3015H17.5968V15.5004C17.5968 14.1171 17.5721 12.3363 15.6703 12.3363C13.741 12.3363 13.4458 13.8435 13.4458 15.3997V21.3011H9.74159V9.37172H13.2976V11.002H13.3474C14.0725 9.7622 15.4207 9.02171 16.856 9.07499C20.6104 9.07499 21.3026 11.5445 21.3026 14.7572L21.3011 21.3015ZM5.56199 7.74106C4.3748 7.74127 3.41222 6.77901 3.412 5.59179C3.41179 4.40457 4.37403 3.44197 5.56122 3.44175C6.74841 3.44154 7.711 4.4038 7.71121 5.59102C7.71131 6.16114 7.48494 6.70796 7.08188 7.11117C6.67882 7.51438 6.1321 7.74095 5.56199 7.74106ZM7.4141 21.3015H3.70603V9.37172H7.4141V21.3015ZM23.1478 0.00177259H1.84466C0.837827 -0.00958973 0.0121657 0.796919 -0.00012207 1.80376V23.1957C0.011745 24.203 0.837339 25.0103 1.84466 24.9998H23.1478C24.1571 25.0123 24.9859 24.205 24.9999 23.1957V1.80222C24.9855 0.793387 24.1566 -0.0130761 23.1478 6.68338e-05" fill="#161614"/>
</g>
<defs>
<clipPath id="clip0_6_12">
<rect width="25" height="25" fill="white"/>
</clipPath>
</defs>
</svg>
