<?xml version="1.0" standalone="no"?>
<!DOCTYPE svg PUBLIC "-//W3C//DTD SVG 20010904//EN"
 "http://www.w3.org/TR/2001/REC-SVG-20010904/DTD/svg10.dtd">
<svg version="1.0" xmlns="http://www.w3.org/2000/svg"
 width="260.000000pt" height="260.000000pt" viewBox="0 0 260.000000 260.000000"
 preserveAspectRatio="xMidYMid meet">
<metadata>
Created by potrace 1.14, written by Peter Selinger 2001-2017
</metadata>
<g transform="translate(0.000000,260.000000) scale(0.100000,-0.100000)"
fill="#000000" stroke="none">
<path d="M1132 2590 c-549 -78 -984 -480 -1103 -1020 -31 -138 -33 -389 -5
-520 82 -378 301 -683 632 -878 38 -23 80 -42 92 -42 12 0 22 -4 22 -9 0 -11
120 -56 143 -53 9 1 17 -3 17 -8 0 -6 5 -10 10 -10 6 0 10 6 10 14 0 9 7 12
20 9 14 -4 20 0 20 10 0 9 4 18 9 21 10 6 10 -11 0 -29 -11 -21 -3 -40 16 -37
11 2 22 8 23 13 2 5 10 9 17 9 8 0 19 8 24 18 6 9 11 12 11 6 0 -17 28 -25 36
-12 5 7 2 8 -6 3 -9 -6 -11 -4 -5 4 5 9 13 7 31 -10 13 -12 24 -18 24 -12 0
16 40 23 62 12 21 -12 81 -2 73 11 -3 5 0 12 7 17 7 4 13 17 13 27 0 11 6 21
13 24 11 3 12 0 3 -17 -7 -11 -8 -21 -4 -21 4 0 2 -5 -5 -12 -7 -7 -12 -16
-12 -22 0 -5 8 0 18 10 23 25 96 30 87 5 -4 -11 -3 -13 4 -6 15 16 26 70 12
61 -6 -4 -11 -1 -11 9 0 8 11 20 25 25 14 5 25 15 25 21 0 16 42 47 57 42 7
-3 10 -10 7 -15 -4 -6 -9 -6 -14 2 -4 7 -10 -1 -14 -21 -3 -18 -14 -41 -23
-51 -13 -14 -13 -18 -2 -18 17 1 58 30 42 30 -6 0 -9 9 -6 20 3 12 8 18 11 15
3 -3 14 3 25 12 11 10 17 12 13 6 -4 -7 -3 -13 3 -13 5 0 14 6 18 13 4 8 17
19 28 26 l20 13 -20 -6 c-18 -5 -18 -4 3 10 12 9 22 24 22 34 0 9 7 17 15 17
10 0 12 -4 5 -12 -8 -9 -4 -14 11 -18 11 -3 18 -3 15 0 -8 8 14 44 23 38 5 -2
8 3 7 13 0 9 5 16 12 14 8 -1 16 7 19 18 3 11 11 20 18 20 7 0 15 6 18 13 2 8
22 11 57 10 40 -2 56 2 66 15 19 25 17 37 -3 21 -17 -13 -17 -13 -3 5 8 10 15
24 16 30 0 6 2 17 2 24 1 7 6 11 11 7 5 -3 13 4 16 16 6 17 9 19 16 8 7 -11 9
-11 9 -1 0 7 4 11 9 7 6 -3 14 2 19 11 5 9 12 15 15 15 20 -3 27 0 27 13 0 7
9 16 20 19 11 3 20 13 20 22 0 12 6 16 20 12 11 -3 20 -1 20 4 0 6 25 35 55
65 30 31 55 60 55 65 0 5 7 9 16 9 8 0 12 5 9 11 -4 6 -14 8 -22 5 -8 -3 -12
-2 -8 3 3 5 1 20 -4 33 -5 14 -12 47 -15 76 -5 45 -3 50 12 46 11 -4 10 -1 -4
8 -16 10 -20 21 -17 43 2 16 9 35 15 42 7 9 7 13 -1 13 -14 0 -5 45 16 79 8
13 11 21 5 18 -5 -4 -14 5 -21 19 -14 31 -14 34 0 34 5 0 7 -6 3 -12 -5 -7 8
-1 27 13 18 14 41 40 49 57 8 17 21 32 28 32 14 0 16 16 2 25 -7 4 -7 12 0 25
14 26 13 33 -5 26 -10 -3 -15 1 -15 13 0 10 8 22 17 25 10 4 14 4 10 0 -4 -4
-1 -14 5 -22 7 -8 11 -28 10 -45 l-2 -32 15 33 c15 34 10 76 -6 50 -6 -8 -9 0
-9 25 0 23 5 37 13 37 9 0 9 2 -1 9 -16 10 -12 34 8 42 9 4 18 0 22 -10 3 -9
5 1 4 21 -1 20 -6 41 -10 45 -5 4 -7 3 -3 -2 3 -6 2 -17 -2 -23 -6 -10 -11 -9
-22 4 -9 12 -10 15 -1 10 8 -5 12 -1 12 11 0 11 5 24 11 30 8 8 8 13 -1 18 -8
5 -6 11 7 21 17 12 17 13 1 14 -12 0 -15 5 -11 16 5 13 7 13 14 2 5 -7 9 -8 9
-2 0 5 -5 15 -12 22 -11 11 -2 17 23 14 12 -2 -14 73 -33 94 -22 25 -29 56
-17 75 7 11 9 10 9 -4 0 -10 4 -16 9 -13 5 4 8 14 6 24 -2 9 -4 19 -4 22 -2
10 -41 6 -42 -5 -2 -24 -17 44 -18 83 -1 25 -5 41 -11 37 -5 -3 -7 -12 -3 -20
3 -10 -1 -15 -12 -15 -11 0 -15 5 -11 15 3 8 0 14 -6 12 -7 -1 -14 6 -16 16
-3 15 0 18 17 12 25 -8 27 -2 4 21 -9 9 -19 26 -20 38 -2 11 -11 28 -20 36 -9
8 -13 9 -9 3 4 -7 2 -13 -5 -13 -6 0 -9 8 -6 20 3 11 -1 23 -8 28 -7 4 -16 18
-19 32 -6 19 -5 21 3 10 9 -13 11 -13 11 1 0 8 -17 31 -37 50 -21 18 -29 24
-19 12 15 -18 16 -23 4 -23 -8 0 -21 14 -29 32 -8 17 -22 36 -33 42 -10 6 -30
21 -44 33 -82 74 -296 171 -462 209 -118 28 -348 40 -458 24z m979 -287 c13
-16 12 -17 -3 -4 -10 7 -18 15 -18 17 0 8 8 3 21 -13z m74 -63 c3 -5 1 -10 -4
-10 -6 0 -11 5 -11 10 0 6 2 10 4 10 3 0 8 -4 11 -10z m57 -162 c-8 -8 -9 -4
-5 13 4 13 8 18 11 10 2 -7 -1 -18 -6 -23z m-797 -123 c171 -44 253 -173 227
-355 -9 -62 -8 -78 4 -91 25 -28 -9 -179 -41 -179 -8 0 -15 -4 -15 -10 0 -5
32 -10 72 -12 80 -3 99 -20 43 -38 -32 -11 -35 -14 -32 -46 3 -18 2 -36 -1
-39 -9 -9 -8 -55 1 -55 5 0 4 -6 -2 -13 -6 -8 -8 -17 -4 -20 3 -4 1 -7 -5 -7
-7 0 -12 -5 -12 -11 0 -5 4 -8 9 -4 6 3 7 -6 2 -22 -4 -16 -7 -36 -5 -45 1
-10 -4 -18 -12 -18 -16 0 -18 -33 -4 -61 8 -15 8 -19 -2 -17 -8 2 -12 -5 -11
-17 1 -11 -5 -23 -12 -28 -8 -4 -12 -14 -9 -22 4 -8 1 -15 -6 -15 -7 0 -10 -8
-7 -19 4 -15 -2 -22 -26 -30 -34 -12 -595 -14 -637 -2 -18 5 -25 14 -25 31 0
13 -6 25 -13 28 -7 2 -9 8 -6 13 3 6 2 18 -2 27 -12 27 -11 20 -30 242 -3 30
-6 75 -7 100 -2 25 -6 51 -10 58 -15 23 5 32 74 32 39 0 69 4 69 10 0 6 -7 10
-15 10 -20 0 -32 26 -46 104 -12 61 -11 70 3 80 14 10 15 19 6 57 -12 55 -4
173 16 219 15 37 94 117 137 140 74 40 230 51 334 25z m835 -119 c0 -3 -4 -8
-10 -11 -5 -3 -10 -1 -10 4 0 6 5 11 10 11 6 0 10 -2 10 -4z m60 -56 c0 -5 -2
-10 -4 -10 -3 0 -8 5 -11 10 -3 6 -1 10 4 10 6 0 11 -4 11 -10z m60 -56 c0
-22 -16 -17 -17 6 -1 11 2 18 8 15 5 -4 9 -13 9 -21z m-23 -120 c-3 -3 -12 -4
-19 -1 -8 3 -5 6 6 6 11 1 17 -2 13 -5z m-74 -55 c-8 -8 -13 -7 -18 2 -5 8 -4
10 3 5 7 -4 12 -2 12 5 0 7 3 9 7 6 4 -4 2 -12 -4 -18z m15 -97 c-15 -19 -24
-24 -26 -15 -2 7 -8 11 -13 8 -5 -4 -9 -1 -9 5 0 7 8 9 20 5 14 -5 20 -2 20 9
0 9 7 16 16 16 12 0 11 -6 -8 -28z m-66 -189 c-3 -16 -7 -22 -10 -15 -4 13 4
42 11 42 2 0 2 -12 -1 -27z m-359 -568 c-3 -9 -8 -14 -10 -11 -3 3 -2 9 2 15
9 16 15 13 8 -4z m-5 -55 c-7 -11 -16 -20 -19 -20 -4 0 -5 9 -2 20 3 11 12 20
19 20 12 0 12 -4 2 -20z m26 -115 c-4 -8 -13 -15 -22 -15 -13 0 -12 3 4 15 24
18 25 18 18 0z m-44 -85 c0 -11 -4 -20 -9 -20 -5 0 -7 9 -4 20 3 11 7 20 9 20
2 0 4 -9 4 -20z m-285 -123 c-10 -15 -11 -24 -4 -33 6 -8 9 -19 6 -26 -3 -7
-10 0 -17 17 -8 22 -9 35 -1 47 6 10 11 30 12 45 l1 28 8 -29 c7 -21 5 -35 -5
-49z m133 48 c-2 -6 -7 -9 -12 -7 -5 2 -6 -4 -3 -12 4 -9 2 -18 -3 -21 -11 -7
-14 38 -3 49 9 9 25 3 21 -9z m-57 -28 c-10 -9 -11 -8 -5 6 3 10 9 15 12 12 3
-3 0 -11 -7 -18z m-241 -61 c0 -2 -8 -10 -17 -17 -16 -13 -17 -12 -4 4 13 16
21 21 21 13z m-108 -48 c-5 -7 -12 -22 -14 -33 -2 -12 -6 -16 -10 -9 -7 10 17
54 29 54 3 0 1 -6 -5 -12z m133 -13 c0 -14 -5 -27 -11 -29 -6 -2 -9 5 -8 17 1
12 3 25 3 30 2 19 16 4 16 -18z m-55 1 c0 -3 -4 -8 -10 -11 -5 -3 -10 -1 -10
4 0 6 5 11 10 11 6 0 10 -2 10 -4z m27 -68 c-3 -8 -6 -5 -6 6 -1 11 2 17 5 13
3 -3 4 -12 1 -19z m-227 8 c0 -2 -7 -6 -15 -10 -8 -3 -15 -1 -15 4 0 6 7 10
15 10 8 0 15 -2 15 -4z m207 -18 c-2 -12 -9 -24 -15 -26 -10 -3 -11 18 -3 46
1 1 5 2 11 2 5 0 8 -10 7 -22z m-492 -48 c-3 -5 -13 -10 -21 -10 -8 0 -12 5
-9 10 3 6 13 10 21 10 8 0 12 -4 9 -10z m360 -10 c-3 -5 -10 -10 -16 -10 -5 0
-9 5 -9 10 0 6 7 10 16 10 8 0 12 -4 9 -10z"/>
<path d="M1066 1764 c-9 -23 -7 -29 5 -17 8 8 18 7 37 -3 62 -32 170 -47 316
-42 l142 4 29 -77 c16 -43 32 -76 36 -73 5 2 0 24 -10 47 -28 65 -33 105 -15
115 8 4 -66 8 -168 8 -174 -1 -187 0 -263 26 -94 32 -101 33 -109 12z"/>
<path d="M1037 1667 c-9 -26 -14 -47 -12 -47 8 0 36 73 32 84 -2 6 -11 -11
-20 -37z"/>
<path d="M1112 1600 c-25 -10 -25 -38 -1 -31 8 2 36 6 62 9 29 3 46 9 44 16
-5 14 -75 18 -105 6z"/>
<path d="M1417 1603 c-15 -14 -5 -20 41 -26 26 -3 54 -7 61 -9 26 -6 22 22 -4
32 -30 11 -88 13 -98 3z"/>
<path d="M1131 1521 c-43 -33 -22 -101 31 -101 10 0 17 5 16 11 -2 6 3 14 11
17 9 3 11 0 7 -9 -4 -8 0 -5 8 5 22 27 20 43 -9 71 -29 30 -33 30 -64 6z m23
-22 c-3 -5 -10 -7 -15 -3 -5 3 -7 10 -3 15 3 5 10 7 15 3 5 -3 7 -10 3 -15z"/>
<path d="M1435 1515 c-29 -28 -31 -42 -9 -73 18 -27 55 -29 77 -4 23 26 21 55
-6 80 -29 28 -32 27 -62 -3z m21 -22 c-10 -10 -19 5 -10 18 6 11 8 11 12 0 2
-7 1 -15 -2 -18z m39 -53 c-3 -5 -12 -10 -18 -10 -7 0 -6 4 3 10 19 12 23 12
15 0z"/>
<path d="M1627 1514 c-11 -11 -8 -84 3 -84 5 0 12 10 15 23 7 25 -7 72 -18 61z"/>
<path d="M985 1478 c-8 -31 -1 -58 15 -58 12 0 12 36 0 65 -7 18 -8 18 -15 -7z"/>
<path d="M1260 1319 c0 -5 26 -9 58 -8 64 1 60 5 -10 12 -27 2 -48 1 -48 -4z"/>
<path d="M2226 2178 c3 -5 10 -6 15 -3 13 9 11 12 -6 12 -8 0 -12 -4 -9 -9z"/>
<path d="M2337 1969 c7 -7 15 -10 18 -7 3 3 -2 9 -12 12 -14 6 -15 5 -6 -5z"/>
<path d="M2421 1484 c0 -11 3 -14 6 -6 3 7 2 16 -1 19 -3 4 -6 -2 -5 -13z"/>
<path d="M2339 1291 c-32 -33 -66 -87 -66 -103 0 -9 4 -15 9 -12 5 3 6 10 3
15 -4 5 0 9 8 9 8 0 19 10 25 23 6 13 11 16 11 7 0 -8 -8 -26 -19 -40 -20 -26
-28 -66 -10 -55 6 3 10 2 10 -2 0 -5 -9 -14 -20 -21 -16 -9 -19 -19 -14 -40 4
-15 12 -30 17 -33 5 -4 7 -16 4 -28 -7 -28 16 -46 34 -25 10 12 10 20 1 35 -7
10 -8 19 -3 19 5 0 11 10 15 23 5 17 8 19 15 8 17 -26 18 32 1 59 -13 22 -13
24 1 13 12 -10 15 -8 16 8 1 10 -3 19 -9 19 -6 0 -3 11 6 25 17 26 9 34 -13
13 -10 -11 -11 -7 -6 17 5 24 4 27 -5 15 -9 -13 -11 -12 -7 5 2 11 8 19 13 18
6 -1 10 7 9 17 -2 27 -8 30 -26 11z"/>
<path d="M2257 1101 c-7 -17 -17 -28 -21 -24 -4 4 -4 -1 0 -11 6 -15 10 -12
25 20 11 20 17 40 14 42 -3 3 -11 -9 -18 -27z"/>
<path d="M2256 1032 c-5 -18 -5 -36 -2 -39 7 -7 19 43 13 59 -2 7 -7 -2 -11
-20z"/>
<path d="M2146 642 c-3 -5 1 -9 9 -9 8 0 12 4 9 9 -3 4 -7 8 -9 8 -2 0 -6 -4
-9 -8z"/>
<path d="M1785 370 c-3 -5 -1 -10 4 -10 6 0 11 5 11 10 0 6 -2 10 -4 10 -3 0
-8 -4 -11 -10z"/>
<path d="M1487 191 c-4 -17 -3 -21 5 -13 5 5 8 16 6 23 -3 8 -7 3 -11 -10z"/>
<path d="M1461 170 c-2 -3 -4 -17 -5 -32 -1 -20 4 -28 20 -31 13 -2 21 2 21
10 0 8 -6 12 -13 9 -8 -3 -14 5 -17 22 -2 15 -5 25 -6 22z"/>
<path d="M1360 61 c0 -5 7 -12 16 -15 14 -5 15 -4 4 9 -14 17 -20 19 -20 6z"/>
<path d="M1285 50 c3 -5 8 -10 11 -10 2 0 4 5 4 10 0 6 -5 10 -11 10 -5 0 -7
-4 -4 -10z"/>
<path d="M1068 23 c12 -2 30 -2 40 0 9 3 -1 5 -23 4 -22 0 -30 -2 -17 -4z"/>
<path d="M1218 3 c7 -3 16 -2 19 1 4 3 -2 6 -13 5 -11 0 -14 -3 -6 -6z"/>
</g>
</svg>
